<?xml version="1.0" encoding="UTF-8" standalone="no"?>
<!DOCTYPE svg PUBLIC "-//W3C//DTD SVG 1.1//EN"
 "http://www.w3.org/Graphics/SVG/1.1/DTD/svg11.dtd">
<!-- Generated by graphviz version 12.2.1 (20241206.2353)
 -->
<!-- Title: Tree Pages: 1 -->
<svg width="376pt" height="263pt"
 viewBox="0.00 0.00 376.25 263.25" xmlns="http://www.w3.org/2000/svg" xmlns:xlink="http://www.w3.org/1999/xlink">
<g id="graph0" class="graph" transform="scale(1 1) rotate(0) translate(4 259.25)">
<title>Tree</title>
<polygon fill="white" stroke="none" points="-4,4 -4,-259.25 372.25,-259.25 372.25,4 -4,4"/>
<!-- 0 -->
<g id="node1" class="node">
<title>0</title>
<path fill="#eca06a" stroke="black" d="M284.75,-255.25C284.75,-255.25 158.5,-255.25 158.5,-255.25 152.5,-255.25 146.5,-249.25 146.5,-243.25 146.5,-243.25 146.5,-203.25 146.5,-203.25 146.5,-197.25 152.5,-191.25 158.5,-191.25 158.5,-191.25 284.75,-191.25 284.75,-191.25 290.75,-191.25 296.75,-197.25 296.75,-203.25 296.75,-203.25 296.75,-243.25 296.75,-243.25 296.75,-249.25 290.75,-255.25 284.75,-255.25"/>
<text text-anchor="start" x="198" y="-238.95" font-family="Helvetica,sans-Serif" font-size="14.00">x</text>
<text text-anchor="start" x="204.75" y="-238.95" font-family="Helvetica,sans-Serif" baseline-shift="sub" font-size="14.00">1</text>
<text text-anchor="start" x="211.5" y="-238.95" font-family="Helvetica,sans-Serif" font-size="14.00"> ≤ 0.5</text>
<text text-anchor="start" x="154.5" y="-224.95" font-family="Helvetica,sans-Serif" font-size="14.00">squared_error = 0.188</text>
<text text-anchor="start" x="177" y="-210.95" font-family="Helvetica,sans-Serif" font-size="14.00">samples = 100</text>
<text text-anchor="start" x="184.5" y="-196.95" font-family="Helvetica,sans-Serif" font-size="14.00">value = 0.75</text>
</g>
<!-- 1 -->
<g id="node2" class="node">
<title>1</title>
<path fill="#f2c09c" stroke="black" d="M203,-155.25C203,-155.25 84.25,-155.25 84.25,-155.25 78.25,-155.25 72.25,-149.25 72.25,-143.25 72.25,-143.25 72.25,-103.25 72.25,-103.25 72.25,-97.25 78.25,-91.25 84.25,-91.25 84.25,-91.25 203,-91.25 203,-91.25 209,-91.25 215,-97.25 215,-103.25 215,-103.25 215,-143.25 215,-143.25 215,-149.25 209,-155.25 203,-155.25"/>
<text text-anchor="start" x="120" y="-138.95" font-family="Helvetica,sans-Serif" font-size="14.00">x</text>
<text text-anchor="start" x="126.75" y="-138.95" font-family="Helvetica,sans-Serif" baseline-shift="sub" font-size="14.00">0</text>
<text text-anchor="start" x="133.5" y="-138.95" font-family="Helvetica,sans-Serif" font-size="14.00"> ≤ 0.5</text>
<text text-anchor="start" x="80.25" y="-124.95" font-family="Helvetica,sans-Serif" font-size="14.00">squared_error = 0.25</text>
<text text-anchor="start" x="102.75" y="-110.95" font-family="Helvetica,sans-Serif" font-size="14.00">samples = 50</text>
<text text-anchor="start" x="110.25" y="-96.95" font-family="Helvetica,sans-Serif" font-size="14.00">value = 0.5</text>
</g>
<!-- 0&#45;&gt;1 -->
<g id="edge1" class="edge">
<title>0&#45;&gt;1</title>
<path fill="none" stroke="black" d="M196.73,-190.97C190.05,-182.57 182.72,-173.37 175.71,-164.56"/>
<polygon fill="black" stroke="black" points="178.46,-162.4 169.49,-156.75 172.98,-166.75 178.46,-162.4"/>
<text text-anchor="middle" x="165.73" y="-174.98" font-family="Helvetica,sans-Serif" font-size="14.00">True</text>
</g>
<!-- 4 -->
<g id="node5" class="node">
<title>4</title>
<path fill="#e58139" stroke="black" d="M356.25,-150.88C356.25,-150.88 245,-150.88 245,-150.88 239,-150.88 233,-144.88 233,-138.88 233,-138.88 233,-107.62 233,-107.62 233,-101.62 239,-95.62 245,-95.62 245,-95.62 356.25,-95.62 356.25,-95.62 362.25,-95.62 368.25,-101.62 368.25,-107.62 368.25,-107.62 368.25,-138.88 368.25,-138.88 368.25,-144.88 362.25,-150.88 356.25,-150.88"/>
<text text-anchor="start" x="241" y="-133.57" font-family="Helvetica,sans-Serif" font-size="14.00">squared_error = 0.0</text>
<text text-anchor="start" x="259.75" y="-117.83" font-family="Helvetica,sans-Serif" font-size="14.00">samples = 50</text>
<text text-anchor="start" x="267.25" y="-102.08" font-family="Helvetica,sans-Serif" font-size="14.00">value = 1.0</text>
</g>
<!-- 0&#45;&gt;4 -->
<g id="edge4" class="edge">
<title>0&#45;&gt;4</title>
<path fill="none" stroke="black" d="M246.84,-190.97C254.8,-181.09 263.66,-170.11 271.85,-159.94"/>
<polygon fill="black" stroke="black" points="274.34,-162.43 277.89,-152.45 268.89,-158.04 274.34,-162.43"/>
<text text-anchor="middle" x="281.51" y="-170.71" font-family="Helvetica,sans-Serif" font-size="14.00">False</text>
</g>
<!-- 2 -->
<g id="node3" class="node">
<title>2</title>
<path fill="#ffffff" stroke="black" d="M123.25,-55.25C123.25,-55.25 12,-55.25 12,-55.25 6,-55.25 0,-49.25 0,-43.25 0,-43.25 0,-12 0,-12 0,-6 6,0 12,0 12,0 123.25,0 123.25,0 129.25,0 135.25,-6 135.25,-12 135.25,-12 135.25,-43.25 135.25,-43.25 135.25,-49.25 129.25,-55.25 123.25,-55.25"/>
<text text-anchor="start" x="8" y="-37.95" font-family="Helvetica,sans-Serif" font-size="14.00">squared_error = 0.0</text>
<text text-anchor="start" x="26.75" y="-22.2" font-family="Helvetica,sans-Serif" font-size="14.00">samples = 25</text>
<text text-anchor="start" x="34.25" y="-6.45" font-family="Helvetica,sans-Serif" font-size="14.00">value = 0.0</text>
</g>
<!-- 1&#45;&gt;2 -->
<g id="edge2" class="edge">
<title>1&#45;&gt;2</title>
<path fill="none" stroke="black" d="M118.11,-90.81C111.26,-82.38 103.8,-73.19 96.77,-64.53"/>
<polygon fill="black" stroke="black" points="99.62,-62.48 90.6,-56.92 94.18,-66.89 99.62,-62.48"/>
</g>
<!-- 3 -->
<g id="node4" class="node">
<title>3</title>
<path fill="#e58139" stroke="black" d="M276.25,-55.25C276.25,-55.25 165,-55.25 165,-55.25 159,-55.25 153,-49.25 153,-43.25 153,-43.25 153,-12 153,-12 153,-6 159,0 165,0 165,0 276.25,0 276.25,0 282.25,0 288.25,-6 288.25,-12 288.25,-12 288.25,-43.25 288.25,-43.25 288.25,-49.25 282.25,-55.25 276.25,-55.25"/>
<text text-anchor="start" x="161" y="-37.95" font-family="Helvetica,sans-Serif" font-size="14.00">squared_error = 0.0</text>
<text text-anchor="start" x="179.75" y="-22.2" font-family="Helvetica,sans-Serif" font-size="14.00">samples = 25</text>
<text text-anchor="start" x="187.25" y="-6.45" font-family="Helvetica,sans-Serif" font-size="14.00">value = 1.0</text>
</g>
<!-- 1&#45;&gt;3 -->
<g id="edge3" class="edge">
<title>1&#45;&gt;3</title>
<path fill="none" stroke="black" d="M169.48,-90.81C176.42,-82.38 183.97,-73.19 191.1,-64.53"/>
<polygon fill="black" stroke="black" points="193.71,-66.87 197.36,-56.92 188.3,-62.42 193.71,-66.87"/>
</g>
</g>
</svg>
