<?xml version="1.0" encoding="UTF-8" standalone="no"?>
<!DOCTYPE svg PUBLIC "-//W3C//DTD SVG 1.1//EN"
 "http://www.w3.org/Graphics/SVG/1.1/DTD/svg11.dtd">
<!-- Generated by graphviz version 2.43.0 (0)
 -->
<!-- Title: Tree Pages: 1 -->
<svg width="740pt" height="261pt"
 viewBox="0.00 0.00 740.00 261.00" xmlns="http://www.w3.org/2000/svg" xmlns:xlink="http://www.w3.org/1999/xlink">
<g id="graph0" class="graph" transform="scale(1 1) rotate(0) translate(4 257)">
<title>Tree</title>
<polygon fill="white" stroke="transparent" points="-4,4 -4,-257 736,-257 736,4 -4,4"/>
<!-- 0 -->
<g id="node1" class="node">
<title>0</title>
<path fill="#fae5d6" stroke="black" d="M450,-253C450,-253 300,-253 300,-253 294,-253 288,-247 288,-241 288,-241 288,-201 288,-201 288,-195 294,-189 300,-189 300,-189 450,-189 450,-189 456,-189 462,-195 462,-201 462,-201 462,-241 462,-241 462,-247 456,-253 450,-253"/>
<text text-anchor="start" x="344.5" y="-238.8" font-family="Helvetica,sans-Serif" font-size="14.00">x</text>
<text text-anchor="start" x="353.5" y="-238.8" font-family="Helvetica,sans-Serif" baseline-shift="sub" font-size="14.00">5</text>
<text text-anchor="start" x="361.5" y="-238.8" font-family="Helvetica,sans-Serif" font-size="14.00"> ≤ 3.5</text>
<text text-anchor="start" x="296" y="-224.8" font-family="Helvetica,sans-Serif" font-size="14.00">squared_error = 0.183</text>
<text text-anchor="start" x="313" y="-210.8" font-family="Helvetica,sans-Serif" font-size="14.00">samples = 32561</text>
<text text-anchor="start" x="325" y="-196.8" font-family="Helvetica,sans-Serif" font-size="14.00">value = 0.241</text>
</g>
<!-- 1 -->
<g id="node2" class="node">
<title>1</title>
<path fill="#fffdfb" stroke="black" d="M354,-153C354,-153 204,-153 204,-153 198,-153 192,-147 192,-141 192,-141 192,-101 192,-101 192,-95 198,-89 204,-89 204,-89 354,-89 354,-89 360,-89 366,-95 366,-101 366,-101 366,-141 366,-141 366,-147 360,-153 354,-153"/>
<text text-anchor="start" x="235" y="-138.8" font-family="Helvetica,sans-Serif" font-size="14.00">x</text>
<text text-anchor="start" x="244" y="-138.8" font-family="Helvetica,sans-Serif" baseline-shift="sub" font-size="14.00">8</text>
<text text-anchor="start" x="252" y="-138.8" font-family="Helvetica,sans-Serif" font-size="14.00"> ≤ 7073.5</text>
<text text-anchor="start" x="200" y="-124.8" font-family="Helvetica,sans-Serif" font-size="14.00">squared_error = 0.062</text>
<text text-anchor="start" x="217" y="-110.8" font-family="Helvetica,sans-Serif" font-size="14.00">samples = 17800</text>
<text text-anchor="start" x="229" y="-96.8" font-family="Helvetica,sans-Serif" font-size="14.00">value = 0.066</text>
</g>
<!-- 0&#45;&gt;1 -->
<g id="edge1" class="edge">
<title>0&#45;&gt;1</title>
<path fill="none" stroke="black" d="M344.62,-188.99C335.78,-179.97 326.01,-169.99 316.77,-160.56"/>
<polygon fill="black" stroke="black" points="319,-157.84 309.51,-153.14 314,-162.74 319,-157.84"/>
<text text-anchor="middle" x="309.25" y="-174.44" font-family="Helvetica,sans-Serif" font-size="14.00">True</text>
</g>
<!-- 4 -->
<g id="node5" class="node">
<title>4</title>
<path fill="#f4c8a8" stroke="black" d="M546,-153C546,-153 396,-153 396,-153 390,-153 384,-147 384,-141 384,-141 384,-101 384,-101 384,-95 390,-89 396,-89 396,-89 546,-89 546,-89 552,-89 558,-95 558,-101 558,-101 558,-141 558,-141 558,-147 552,-153 546,-153"/>
<text text-anchor="start" x="436" y="-138.8" font-family="Helvetica,sans-Serif" font-size="14.00">x</text>
<text text-anchor="start" x="445" y="-138.8" font-family="Helvetica,sans-Serif" baseline-shift="sub" font-size="14.00">2</text>
<text text-anchor="start" x="453" y="-138.8" font-family="Helvetica,sans-Serif" font-size="14.00"> ≤ 12.5</text>
<text text-anchor="start" x="392" y="-124.8" font-family="Helvetica,sans-Serif" font-size="14.00">squared_error = 0.248</text>
<text text-anchor="start" x="409" y="-110.8" font-family="Helvetica,sans-Serif" font-size="14.00">samples = 14761</text>
<text text-anchor="start" x="421" y="-96.8" font-family="Helvetica,sans-Serif" font-size="14.00">value = 0.451</text>
</g>
<!-- 0&#45;&gt;4 -->
<g id="edge4" class="edge">
<title>0&#45;&gt;4</title>
<path fill="none" stroke="black" d="M405.38,-188.99C414.22,-179.97 423.99,-169.99 433.23,-160.56"/>
<polygon fill="black" stroke="black" points="436,-162.74 440.49,-153.14 431,-157.84 436,-162.74"/>
<text text-anchor="middle" x="440.75" y="-174.44" font-family="Helvetica,sans-Serif" font-size="14.00">False</text>
</g>
<!-- 2 -->
<g id="node3" class="node">
<title>2</title>
<path fill="#ffffff" stroke="black" d="M162,-53C162,-53 12,-53 12,-53 6,-53 0,-47 0,-41 0,-41 0,-12 0,-12 0,-6 6,0 12,0 12,0 162,0 162,0 168,0 174,-6 174,-12 174,-12 174,-41 174,-41 174,-47 168,-53 162,-53"/>
<text text-anchor="start" x="8" y="-37.8" font-family="Helvetica,sans-Serif" font-size="14.00">squared_error = 0.047</text>
<text text-anchor="start" x="25" y="-22.8" font-family="Helvetica,sans-Serif" font-size="14.00">samples = 17482</text>
<text text-anchor="start" x="41.5" y="-7.8" font-family="Helvetica,sans-Serif" font-size="14.00">value = 0.05</text>
</g>
<!-- 1&#45;&gt;2 -->
<g id="edge2" class="edge">
<title>1&#45;&gt;2</title>
<path fill="none" stroke="black" d="M214.53,-88.94C193.47,-78.79 170.12,-67.54 149.22,-57.48"/>
<polygon fill="black" stroke="black" points="150.65,-54.28 140.12,-53.09 147.61,-60.58 150.65,-54.28"/>
</g>
<!-- 3 -->
<g id="node4" class="node">
<title>3</title>
<path fill="#e58139" stroke="black" d="M354,-53C354,-53 204,-53 204,-53 198,-53 192,-47 192,-41 192,-41 192,-12 192,-12 192,-6 198,0 204,0 204,0 354,0 354,0 360,0 366,-6 366,-12 366,-12 366,-41 366,-41 366,-47 360,-53 354,-53"/>
<text text-anchor="start" x="200" y="-37.8" font-family="Helvetica,sans-Serif" font-size="14.00">squared_error = 0.036</text>
<text text-anchor="start" x="226" y="-22.8" font-family="Helvetica,sans-Serif" font-size="14.00">samples = 318</text>
<text text-anchor="start" x="229" y="-7.8" font-family="Helvetica,sans-Serif" font-size="14.00">value = 0.962</text>
</g>
<!-- 1&#45;&gt;3 -->
<g id="edge3" class="edge">
<title>1&#45;&gt;3</title>
<path fill="none" stroke="black" d="M279,-88.94C279,-80.66 279,-71.64 279,-63.13"/>
<polygon fill="black" stroke="black" points="282.5,-63.09 279,-53.09 275.5,-63.09 282.5,-63.09"/>
</g>
<!-- 5 -->
<g id="node6" class="node">
<title>5</title>
<path fill="#f7d8c1" stroke="black" d="M546,-53C546,-53 396,-53 396,-53 390,-53 384,-47 384,-41 384,-41 384,-12 384,-12 384,-6 390,0 396,0 396,0 546,0 546,0 552,0 558,-6 558,-12 558,-12 558,-41 558,-41 558,-47 552,-53 546,-53"/>
<text text-anchor="start" x="392" y="-37.8" font-family="Helvetica,sans-Serif" font-size="14.00">squared_error = 0.223</text>
<text text-anchor="start" x="409" y="-22.8" font-family="Helvetica,sans-Serif" font-size="14.00">samples = 10329</text>
<text text-anchor="start" x="421" y="-7.8" font-family="Helvetica,sans-Serif" font-size="14.00">value = 0.335</text>
</g>
<!-- 4&#45;&gt;5 -->
<g id="edge5" class="edge">
<title>4&#45;&gt;5</title>
<path fill="none" stroke="black" d="M471,-88.94C471,-80.66 471,-71.64 471,-63.13"/>
<polygon fill="black" stroke="black" points="474.5,-63.09 471,-53.09 467.5,-63.09 474.5,-63.09"/>
</g>
<!-- 6 -->
<g id="node7" class="node">
<title>6</title>
<path fill="#eca26d" stroke="black" d="M720,-53C720,-53 588,-53 588,-53 582,-53 576,-47 576,-41 576,-41 576,-12 576,-12 576,-6 582,0 588,0 588,0 720,0 720,0 726,0 732,-6 732,-12 732,-12 732,-41 732,-41 732,-47 726,-53 720,-53"/>
<text text-anchor="start" x="584" y="-37.8" font-family="Helvetica,sans-Serif" font-size="14.00">squared_error = 0.2</text>
<text text-anchor="start" x="596.5" y="-22.8" font-family="Helvetica,sans-Serif" font-size="14.00">samples = 4432</text>
<text text-anchor="start" x="604" y="-7.8" font-family="Helvetica,sans-Serif" font-size="14.00">value = 0.724</text>
</g>
<!-- 4&#45;&gt;6 -->
<g id="edge6" class="edge">
<title>4&#45;&gt;6</title>
<path fill="none" stroke="black" d="M532.45,-88.94C552.44,-78.84 574.58,-67.65 594.43,-57.61"/>
<polygon fill="black" stroke="black" points="596.03,-60.73 603.37,-53.09 592.87,-54.48 596.03,-60.73"/>
</g>
</g>
</svg>
