<?xml version="1.0" encoding="UTF-8" standalone="no"?>
<!DOCTYPE svg PUBLIC "-//W3C//DTD SVG 1.1//EN"
 "http://www.w3.org/Graphics/SVG/1.1/DTD/svg11.dtd">
<!-- Generated by graphviz version 12.2.1 (20241206.2353)
 -->
<!-- Title: Tree Pages: 1 -->
<svg width="296pt" height="163pt"
 viewBox="0.00 0.00 296.25 163.25" xmlns="http://www.w3.org/2000/svg" xmlns:xlink="http://www.w3.org/1999/xlink">
<g id="graph0" class="graph" transform="scale(1 1) rotate(0) translate(4 159.25)">
<title>Tree</title>
<polygon fill="white" stroke="none" points="-4,4 -4,-159.25 292.25,-159.25 292.25,4 -4,4"/>
<!-- 0 -->
<g id="node1" class="node">
<title>0</title>
<path fill="#f2c09c" stroke="black" d="M203,-155.25C203,-155.25 84.25,-155.25 84.25,-155.25 78.25,-155.25 72.25,-149.25 72.25,-143.25 72.25,-143.25 72.25,-103.25 72.25,-103.25 72.25,-97.25 78.25,-91.25 84.25,-91.25 84.25,-91.25 203,-91.25 203,-91.25 209,-91.25 215,-97.25 215,-103.25 215,-103.25 215,-143.25 215,-143.25 215,-149.25 209,-155.25 203,-155.25"/>
<text text-anchor="start" x="120" y="-138.95" font-family="Helvetica,sans-Serif" font-size="14.00">x</text>
<text text-anchor="start" x="126.75" y="-138.95" font-family="Helvetica,sans-Serif" baseline-shift="sub" font-size="14.00">0</text>
<text text-anchor="start" x="133.5" y="-138.95" font-family="Helvetica,sans-Serif" font-size="14.00"> ≤ 0.5</text>
<text text-anchor="start" x="80.25" y="-124.95" font-family="Helvetica,sans-Serif" font-size="14.00">squared_error = 0.25</text>
<text text-anchor="start" x="99" y="-110.95" font-family="Helvetica,sans-Serif" font-size="14.00">samples = 100</text>
<text text-anchor="start" x="110.25" y="-96.95" font-family="Helvetica,sans-Serif" font-size="14.00">value = 0.5</text>
</g>
<!-- 1 -->
<g id="node2" class="node">
<title>1</title>
<path fill="#ffffff" stroke="black" d="M123.25,-55.25C123.25,-55.25 12,-55.25 12,-55.25 6,-55.25 0,-49.25 0,-43.25 0,-43.25 0,-12 0,-12 0,-6 6,0 12,0 12,0 123.25,0 123.25,0 129.25,0 135.25,-6 135.25,-12 135.25,-12 135.25,-43.25 135.25,-43.25 135.25,-49.25 129.25,-55.25 123.25,-55.25"/>
<text text-anchor="start" x="8" y="-37.95" font-family="Helvetica,sans-Serif" font-size="14.00">squared_error = 0.0</text>
<text text-anchor="start" x="26.75" y="-22.2" font-family="Helvetica,sans-Serif" font-size="14.00">samples = 50</text>
<text text-anchor="start" x="34.25" y="-6.45" font-family="Helvetica,sans-Serif" font-size="14.00">value = 0.0</text>
</g>
<!-- 0&#45;&gt;1 -->
<g id="edge1" class="edge">
<title>0&#45;&gt;1</title>
<path fill="none" stroke="black" d="M118.11,-90.81C111.26,-82.38 103.8,-73.19 96.77,-64.53"/>
<polygon fill="black" stroke="black" points="99.62,-62.48 90.6,-56.92 94.18,-66.89 99.62,-62.48"/>
<text text-anchor="middle" x="87.06" y="-75.19" font-family="Helvetica,sans-Serif" font-size="14.00">True</text>
</g>
<!-- 2 -->
<g id="node3" class="node">
<title>2</title>
<path fill="#e58139" stroke="black" d="M276.25,-55.25C276.25,-55.25 165,-55.25 165,-55.25 159,-55.25 153,-49.25 153,-43.25 153,-43.25 153,-12 153,-12 153,-6 159,0 165,0 165,0 276.25,0 276.25,0 282.25,0 288.25,-6 288.25,-12 288.25,-12 288.25,-43.25 288.25,-43.25 288.25,-49.25 282.25,-55.25 276.25,-55.25"/>
<text text-anchor="start" x="161" y="-37.95" font-family="Helvetica,sans-Serif" font-size="14.00">squared_error = 0.0</text>
<text text-anchor="start" x="179.75" y="-22.2" font-family="Helvetica,sans-Serif" font-size="14.00">samples = 50</text>
<text text-anchor="start" x="187.25" y="-6.45" font-family="Helvetica,sans-Serif" font-size="14.00">value = 1.0</text>
</g>
<!-- 0&#45;&gt;2 -->
<g id="edge2" class="edge">
<title>0&#45;&gt;2</title>
<path fill="none" stroke="black" d="M169.48,-90.81C176.42,-82.38 183.97,-73.19 191.1,-64.53"/>
<polygon fill="black" stroke="black" points="193.71,-66.87 197.36,-56.92 188.3,-62.42 193.71,-66.87"/>
<text text-anchor="middle" x="200.74" y="-75.21" font-family="Helvetica,sans-Serif" font-size="14.00">False</text>
</g>
</g>
</svg>
