<?xml version="1.0" encoding="UTF-8" standalone="no"?>
<!DOCTYPE svg PUBLIC "-//W3C//DTD SVG 1.1//EN"
 "http://www.w3.org/Graphics/SVG/1.1/DTD/svg11.dtd">
<!-- Generated by graphviz version 12.2.1 (20241206.2353)
 -->
<!-- Title: Tree Pages: 1 -->
<svg width="606pt" height="263pt"
 viewBox="0.00 0.00 606.25 263.25" xmlns="http://www.w3.org/2000/svg" xmlns:xlink="http://www.w3.org/1999/xlink">
<g id="graph0" class="graph" transform="scale(1 1) rotate(0) translate(4 259.25)">
<title>Tree</title>
<polygon fill="white" stroke="none" points="-4,4 -4,-259.25 602.25,-259.25 602.25,4 -4,4"/>
<!-- 0 -->
<g id="node1" class="node">
<title>0</title>
<path fill="#f2c09c" stroke="black" d="M358,-255.25C358,-255.25 239.25,-255.25 239.25,-255.25 233.25,-255.25 227.25,-249.25 227.25,-243.25 227.25,-243.25 227.25,-203.25 227.25,-203.25 227.25,-197.25 233.25,-191.25 239.25,-191.25 239.25,-191.25 358,-191.25 358,-191.25 364,-191.25 370,-197.25 370,-203.25 370,-203.25 370,-243.25 370,-243.25 370,-249.25 364,-255.25 358,-255.25"/>
<text text-anchor="start" x="275" y="-238.95" font-family="Helvetica,sans-Serif" font-size="14.00">x</text>
<text text-anchor="start" x="281.75" y="-238.95" font-family="Helvetica,sans-Serif" baseline-shift="sub" font-size="14.00">0</text>
<text text-anchor="start" x="288.5" y="-238.95" font-family="Helvetica,sans-Serif" font-size="14.00"> ≤ 0.5</text>
<text text-anchor="start" x="235.25" y="-224.95" font-family="Helvetica,sans-Serif" font-size="14.00">squared_error = 0.25</text>
<text text-anchor="start" x="254" y="-210.95" font-family="Helvetica,sans-Serif" font-size="14.00">samples = 100</text>
<text text-anchor="start" x="265.25" y="-196.95" font-family="Helvetica,sans-Serif" font-size="14.00">value = 0.5</text>
</g>
<!-- 1 -->
<g id="node2" class="node">
<title>1</title>
<path fill="#f2c09c" stroke="black" d="M278,-155.25C278,-155.25 159.25,-155.25 159.25,-155.25 153.25,-155.25 147.25,-149.25 147.25,-143.25 147.25,-143.25 147.25,-103.25 147.25,-103.25 147.25,-97.25 153.25,-91.25 159.25,-91.25 159.25,-91.25 278,-91.25 278,-91.25 284,-91.25 290,-97.25 290,-103.25 290,-103.25 290,-143.25 290,-143.25 290,-149.25 284,-155.25 278,-155.25"/>
<text text-anchor="start" x="195" y="-138.95" font-family="Helvetica,sans-Serif" font-size="14.00">x</text>
<text text-anchor="start" x="201.75" y="-138.95" font-family="Helvetica,sans-Serif" baseline-shift="sub" font-size="14.00">1</text>
<text text-anchor="start" x="208.5" y="-138.95" font-family="Helvetica,sans-Serif" font-size="14.00"> ≤ 0.5</text>
<text text-anchor="start" x="155.25" y="-124.95" font-family="Helvetica,sans-Serif" font-size="14.00">squared_error = 0.25</text>
<text text-anchor="start" x="177.75" y="-110.95" font-family="Helvetica,sans-Serif" font-size="14.00">samples = 50</text>
<text text-anchor="start" x="185.25" y="-96.95" font-family="Helvetica,sans-Serif" font-size="14.00">value = 0.5</text>
</g>
<!-- 0&#45;&gt;1 -->
<g id="edge1" class="edge">
<title>0&#45;&gt;1</title>
<path fill="none" stroke="black" d="M273.09,-190.97C266.16,-182.49 258.57,-173.18 251.3,-164.28"/>
<polygon fill="black" stroke="black" points="254.18,-162.27 245.15,-156.74 248.76,-166.7 254.18,-162.27"/>
<text text-anchor="middle" x="241.67" y="-175.01" font-family="Helvetica,sans-Serif" font-size="14.00">True</text>
</g>
<!-- 4 -->
<g id="node5" class="node">
<title>4</title>
<path fill="#f2c09c" stroke="black" d="M439,-155.25C439,-155.25 320.25,-155.25 320.25,-155.25 314.25,-155.25 308.25,-149.25 308.25,-143.25 308.25,-143.25 308.25,-103.25 308.25,-103.25 308.25,-97.25 314.25,-91.25 320.25,-91.25 320.25,-91.25 439,-91.25 439,-91.25 445,-91.25 451,-97.25 451,-103.25 451,-103.25 451,-143.25 451,-143.25 451,-149.25 445,-155.25 439,-155.25"/>
<text text-anchor="start" x="356" y="-138.95" font-family="Helvetica,sans-Serif" font-size="14.00">x</text>
<text text-anchor="start" x="362.75" y="-138.95" font-family="Helvetica,sans-Serif" baseline-shift="sub" font-size="14.00">1</text>
<text text-anchor="start" x="369.5" y="-138.95" font-family="Helvetica,sans-Serif" font-size="14.00"> ≤ 0.5</text>
<text text-anchor="start" x="316.25" y="-124.95" font-family="Helvetica,sans-Serif" font-size="14.00">squared_error = 0.25</text>
<text text-anchor="start" x="338.75" y="-110.95" font-family="Helvetica,sans-Serif" font-size="14.00">samples = 50</text>
<text text-anchor="start" x="346.25" y="-96.95" font-family="Helvetica,sans-Serif" font-size="14.00">value = 0.5</text>
</g>
<!-- 0&#45;&gt;4 -->
<g id="edge4" class="edge">
<title>0&#45;&gt;4</title>
<path fill="none" stroke="black" d="M324.48,-190.97C331.49,-182.49 339.18,-173.18 346.54,-164.28"/>
<polygon fill="black" stroke="black" points="349.1,-166.67 352.78,-156.73 343.71,-162.21 349.1,-166.67"/>
<text text-anchor="middle" x="356.1" y="-175.03" font-family="Helvetica,sans-Serif" font-size="14.00">False</text>
</g>
<!-- 2 -->
<g id="node3" class="node">
<title>2</title>
<path fill="#ffffff" stroke="black" d="M123.25,-55.25C123.25,-55.25 12,-55.25 12,-55.25 6,-55.25 0,-49.25 0,-43.25 0,-43.25 0,-12 0,-12 0,-6 6,0 12,0 12,0 123.25,0 123.25,0 129.25,0 135.25,-6 135.25,-12 135.25,-12 135.25,-43.25 135.25,-43.25 135.25,-49.25 129.25,-55.25 123.25,-55.25"/>
<text text-anchor="start" x="8" y="-37.95" font-family="Helvetica,sans-Serif" font-size="14.00">squared_error = 0.0</text>
<text text-anchor="start" x="26.75" y="-22.2" font-family="Helvetica,sans-Serif" font-size="14.00">samples = 25</text>
<text text-anchor="start" x="34.25" y="-6.45" font-family="Helvetica,sans-Serif" font-size="14.00">value = 0.0</text>
</g>
<!-- 1&#45;&gt;2 -->
<g id="edge2" class="edge">
<title>1&#45;&gt;2</title>
<path fill="none" stroke="black" d="M167.92,-90.81C152.88,-81.49 136.37,-71.25 121.15,-61.81"/>
<polygon fill="black" stroke="black" points="123,-58.84 112.66,-56.55 119.31,-64.79 123,-58.84"/>
</g>
<!-- 3 -->
<g id="node4" class="node">
<title>3</title>
<path fill="#e58139" stroke="black" d="M276.25,-55.25C276.25,-55.25 165,-55.25 165,-55.25 159,-55.25 153,-49.25 153,-43.25 153,-43.25 153,-12 153,-12 153,-6 159,0 165,0 165,0 276.25,0 276.25,0 282.25,0 288.25,-6 288.25,-12 288.25,-12 288.25,-43.25 288.25,-43.25 288.25,-49.25 282.25,-55.25 276.25,-55.25"/>
<text text-anchor="start" x="161" y="-37.95" font-family="Helvetica,sans-Serif" font-size="14.00">squared_error = 0.0</text>
<text text-anchor="start" x="179.75" y="-22.2" font-family="Helvetica,sans-Serif" font-size="14.00">samples = 25</text>
<text text-anchor="start" x="187.25" y="-6.45" font-family="Helvetica,sans-Serif" font-size="14.00">value = 1.0</text>
</g>
<!-- 1&#45;&gt;3 -->
<g id="edge3" class="edge">
<title>1&#45;&gt;3</title>
<path fill="none" stroke="black" d="M219.3,-90.81C219.46,-83.18 219.64,-74.92 219.81,-67"/>
<polygon fill="black" stroke="black" points="223.3,-67.34 220.01,-57.26 216.3,-67.19 223.3,-67.34"/>
</g>
<!-- 5 -->
<g id="node6" class="node">
<title>5</title>
<path fill="#e58139" stroke="black" d="M433.25,-55.25C433.25,-55.25 322,-55.25 322,-55.25 316,-55.25 310,-49.25 310,-43.25 310,-43.25 310,-12 310,-12 310,-6 316,0 322,0 322,0 433.25,0 433.25,0 439.25,0 445.25,-6 445.25,-12 445.25,-12 445.25,-43.25 445.25,-43.25 445.25,-49.25 439.25,-55.25 433.25,-55.25"/>
<text text-anchor="start" x="318" y="-37.95" font-family="Helvetica,sans-Serif" font-size="14.00">squared_error = 0.0</text>
<text text-anchor="start" x="336.75" y="-22.2" font-family="Helvetica,sans-Serif" font-size="14.00">samples = 25</text>
<text text-anchor="start" x="344.25" y="-6.45" font-family="Helvetica,sans-Serif" font-size="14.00">value = 1.0</text>
</g>
<!-- 4&#45;&gt;5 -->
<g id="edge5" class="edge">
<title>4&#45;&gt;5</title>
<path fill="none" stroke="black" d="M378.95,-90.81C378.79,-83.18 378.61,-74.92 378.44,-67"/>
<polygon fill="black" stroke="black" points="381.95,-67.19 378.24,-57.26 374.95,-67.34 381.95,-67.19"/>
</g>
<!-- 6 -->
<g id="node7" class="node">
<title>6</title>
<path fill="#ffffff" stroke="black" d="M586.25,-55.25C586.25,-55.25 475,-55.25 475,-55.25 469,-55.25 463,-49.25 463,-43.25 463,-43.25 463,-12 463,-12 463,-6 469,0 475,0 475,0 586.25,0 586.25,0 592.25,0 598.25,-6 598.25,-12 598.25,-12 598.25,-43.25 598.25,-43.25 598.25,-49.25 592.25,-55.25 586.25,-55.25"/>
<text text-anchor="start" x="471" y="-37.95" font-family="Helvetica,sans-Serif" font-size="14.00">squared_error = 0.0</text>
<text text-anchor="start" x="489.75" y="-22.2" font-family="Helvetica,sans-Serif" font-size="14.00">samples = 25</text>
<text text-anchor="start" x="497.25" y="-6.45" font-family="Helvetica,sans-Serif" font-size="14.00">value = 0.0</text>
</g>
<!-- 4&#45;&gt;6 -->
<g id="edge6" class="edge">
<title>4&#45;&gt;6</title>
<path fill="none" stroke="black" d="M430.33,-90.81C445.37,-81.49 461.88,-71.25 477.1,-61.81"/>
<polygon fill="black" stroke="black" points="478.94,-64.79 485.59,-56.55 475.25,-58.84 478.94,-64.79"/>
</g>
</g>
</svg>
