<?xml version="1.0" encoding="UTF-8" standalone="no"?>
<!DOCTYPE svg PUBLIC "-//W3C//DTD SVG 1.1//EN"
 "http://www.w3.org/Graphics/SVG/1.1/DTD/svg11.dtd">
<!-- Generated by graphviz version 12.2.1 (20241206.2353)
 -->
<!-- Title: Tree Pages: 1 -->
<svg width="376pt" height="263pt"
 viewBox="0.00 0.00 376.25 263.25" xmlns="http://www.w3.org/2000/svg" xmlns:xlink="http://www.w3.org/1999/xlink">
<g id="graph0" class="graph" transform="scale(1 1) rotate(0) translate(4 259.25)">
<title>Tree</title>
<polygon fill="white" stroke="none" points="-4,4 -4,-259.25 372.25,-259.25 372.25,4 -4,4"/>
<!-- 0 -->
<g id="node1" class="node">
<title>0</title>
<path fill="#f8e0ce" stroke="black" d="M208.75,-255.25C208.75,-255.25 82.5,-255.25 82.5,-255.25 76.5,-255.25 70.5,-249.25 70.5,-243.25 70.5,-243.25 70.5,-203.25 70.5,-203.25 70.5,-197.25 76.5,-191.25 82.5,-191.25 82.5,-191.25 208.75,-191.25 208.75,-191.25 214.75,-191.25 220.75,-197.25 220.75,-203.25 220.75,-203.25 220.75,-243.25 220.75,-243.25 220.75,-249.25 214.75,-255.25 208.75,-255.25"/>
<text text-anchor="start" x="122" y="-238.95" font-family="Helvetica,sans-Serif" font-size="14.00">x</text>
<text text-anchor="start" x="128.75" y="-238.95" font-family="Helvetica,sans-Serif" baseline-shift="sub" font-size="14.00">1</text>
<text text-anchor="start" x="135.5" y="-238.95" font-family="Helvetica,sans-Serif" font-size="14.00"> ≤ 0.5</text>
<text text-anchor="start" x="78.5" y="-224.95" font-family="Helvetica,sans-Serif" font-size="14.00">squared_error = 0.188</text>
<text text-anchor="start" x="101" y="-210.95" font-family="Helvetica,sans-Serif" font-size="14.00">samples = 100</text>
<text text-anchor="start" x="108.5" y="-196.95" font-family="Helvetica,sans-Serif" font-size="14.00">value = 0.25</text>
</g>
<!-- 1 -->
<g id="node2" class="node">
<title>1</title>
<path fill="#ffffff" stroke="black" d="M123.25,-150.88C123.25,-150.88 12,-150.88 12,-150.88 6,-150.88 0,-144.88 0,-138.88 0,-138.88 0,-107.62 0,-107.62 0,-101.62 6,-95.62 12,-95.62 12,-95.62 123.25,-95.62 123.25,-95.62 129.25,-95.62 135.25,-101.62 135.25,-107.62 135.25,-107.62 135.25,-138.88 135.25,-138.88 135.25,-144.88 129.25,-150.88 123.25,-150.88"/>
<text text-anchor="start" x="8" y="-133.57" font-family="Helvetica,sans-Serif" font-size="14.00">squared_error = 0.0</text>
<text text-anchor="start" x="26.75" y="-117.83" font-family="Helvetica,sans-Serif" font-size="14.00">samples = 50</text>
<text text-anchor="start" x="34.25" y="-102.08" font-family="Helvetica,sans-Serif" font-size="14.00">value = 0.0</text>
</g>
<!-- 0&#45;&gt;1 -->
<g id="edge1" class="edge">
<title>0&#45;&gt;1</title>
<path fill="none" stroke="black" d="M120.73,-190.97C112.95,-181.19 104.3,-170.33 96.28,-160.25"/>
<polygon fill="black" stroke="black" points="99.04,-158.1 90.08,-152.46 93.57,-162.46 99.04,-158.1"/>
<text text-anchor="middle" x="86.31" y="-170.69" font-family="Helvetica,sans-Serif" font-size="14.00">True</text>
</g>
<!-- 2 -->
<g id="node3" class="node">
<title>2</title>
<path fill="#f2c09c" stroke="black" d="M284,-155.25C284,-155.25 165.25,-155.25 165.25,-155.25 159.25,-155.25 153.25,-149.25 153.25,-143.25 153.25,-143.25 153.25,-103.25 153.25,-103.25 153.25,-97.25 159.25,-91.25 165.25,-91.25 165.25,-91.25 284,-91.25 284,-91.25 290,-91.25 296,-97.25 296,-103.25 296,-103.25 296,-143.25 296,-143.25 296,-149.25 290,-155.25 284,-155.25"/>
<text text-anchor="start" x="201" y="-138.95" font-family="Helvetica,sans-Serif" font-size="14.00">x</text>
<text text-anchor="start" x="207.75" y="-138.95" font-family="Helvetica,sans-Serif" baseline-shift="sub" font-size="14.00">0</text>
<text text-anchor="start" x="214.5" y="-138.95" font-family="Helvetica,sans-Serif" font-size="14.00"> ≤ 0.5</text>
<text text-anchor="start" x="161.25" y="-124.95" font-family="Helvetica,sans-Serif" font-size="14.00">squared_error = 0.25</text>
<text text-anchor="start" x="183.75" y="-110.95" font-family="Helvetica,sans-Serif" font-size="14.00">samples = 50</text>
<text text-anchor="start" x="191.25" y="-96.95" font-family="Helvetica,sans-Serif" font-size="14.00">value = 0.5</text>
</g>
<!-- 0&#45;&gt;2 -->
<g id="edge2" class="edge">
<title>0&#45;&gt;2</title>
<path fill="none" stroke="black" d="M170.84,-190.97C177.68,-182.49 185.18,-173.18 192.35,-164.28"/>
<polygon fill="black" stroke="black" points="194.88,-166.73 198.43,-156.74 189.43,-162.33 194.88,-166.73"/>
<text text-anchor="middle" x="202.05" y="-175" font-family="Helvetica,sans-Serif" font-size="14.00">False</text>
</g>
<!-- 3 -->
<g id="node4" class="node">
<title>3</title>
<path fill="#ffffff" stroke="black" d="M203.25,-55.25C203.25,-55.25 92,-55.25 92,-55.25 86,-55.25 80,-49.25 80,-43.25 80,-43.25 80,-12 80,-12 80,-6 86,0 92,0 92,0 203.25,0 203.25,0 209.25,0 215.25,-6 215.25,-12 215.25,-12 215.25,-43.25 215.25,-43.25 215.25,-49.25 209.25,-55.25 203.25,-55.25"/>
<text text-anchor="start" x="88" y="-37.95" font-family="Helvetica,sans-Serif" font-size="14.00">squared_error = 0.0</text>
<text text-anchor="start" x="106.75" y="-22.2" font-family="Helvetica,sans-Serif" font-size="14.00">samples = 25</text>
<text text-anchor="start" x="114.25" y="-6.45" font-family="Helvetica,sans-Serif" font-size="14.00">value = 0.0</text>
</g>
<!-- 2&#45;&gt;3 -->
<g id="edge3" class="edge">
<title>2&#45;&gt;3</title>
<path fill="none" stroke="black" d="M198.77,-90.81C191.83,-82.38 184.28,-73.19 177.15,-64.53"/>
<polygon fill="black" stroke="black" points="179.95,-62.42 170.89,-56.92 174.54,-66.87 179.95,-62.42"/>
</g>
<!-- 4 -->
<g id="node5" class="node">
<title>4</title>
<path fill="#e58139" stroke="black" d="M356.25,-55.25C356.25,-55.25 245,-55.25 245,-55.25 239,-55.25 233,-49.25 233,-43.25 233,-43.25 233,-12 233,-12 233,-6 239,0 245,0 245,0 356.25,0 356.25,0 362.25,0 368.25,-6 368.25,-12 368.25,-12 368.25,-43.25 368.25,-43.25 368.25,-49.25 362.25,-55.25 356.25,-55.25"/>
<text text-anchor="start" x="241" y="-37.95" font-family="Helvetica,sans-Serif" font-size="14.00">squared_error = 0.0</text>
<text text-anchor="start" x="259.75" y="-22.2" font-family="Helvetica,sans-Serif" font-size="14.00">samples = 25</text>
<text text-anchor="start" x="267.25" y="-6.45" font-family="Helvetica,sans-Serif" font-size="14.00">value = 1.0</text>
</g>
<!-- 2&#45;&gt;4 -->
<g id="edge4" class="edge">
<title>2&#45;&gt;4</title>
<path fill="none" stroke="black" d="M250.14,-90.81C256.99,-82.38 264.45,-73.19 271.48,-64.53"/>
<polygon fill="black" stroke="black" points="274.07,-66.89 277.65,-56.92 268.63,-62.48 274.07,-66.89"/>
</g>
</g>
</svg>
