<?xml version="1.0" encoding="UTF-8" standalone="no"?>
<!DOCTYPE svg PUBLIC "-//W3C//DTD SVG 1.1//EN"
 "http://www.w3.org/Graphics/SVG/1.1/DTD/svg11.dtd">
<!-- Generated by graphviz version 2.40.1 (20161225.0304)
 -->
<!-- Title: %3 Pages: 1 -->
<svg width="572pt" height="332pt"
 viewBox="0.00 0.00 571.82 332.00" xmlns="http://www.w3.org/2000/svg" xmlns:xlink="http://www.w3.org/1999/xlink">
<g id="graph0" class="graph" transform="scale(1 1) rotate(0) translate(4 328)">
<title>%3</title>
<polygon fill="#ffffff" stroke="transparent" points="-4,4 -4,-328 567.8241,-328 567.8241,4 -4,4"/>
<!-- Bugs reported -->
<g id="node1" class="node">
<title>Bugs reported</title>
<ellipse fill="none" stroke="#000000" cx="43.5611" cy="-18" rx="43.6222" ry="18"/>
<text text-anchor="middle" x="43.5611" y="-15.5" font-family="Times,serif" font-size="10.00" fill="#000000">Bugs reported</text>
</g>
<!-- Monthly usage -->
<g id="node2" class="node">
<title>Monthly usage</title>
<ellipse fill="none" stroke="#000000" cx="139.5611" cy="-162" rx="45.8316" ry="18"/>
<text text-anchor="middle" x="139.5611" y="-159.5" font-family="Times,serif" font-size="10.00" fill="#000000">Monthly usage</text>
</g>
<!-- Ad spend -->
<g id="node7" class="node">
<title>Ad spend</title>
<ellipse fill="none" stroke="#000000" cx="200.5611" cy="-90" rx="32.9303" ry="18"/>
<text text-anchor="middle" x="200.5611" y="-87.5" font-family="Times,serif" font-size="10.00" fill="#000000">Ad spend</text>
</g>
<!-- Monthly usage&#45;&gt;Ad spend -->
<g id="edge8" class="edge">
<title>Monthly usage&#45;&gt;Ad spend</title>
<path fill="none" stroke="#000000" d="M154.3275,-144.5708C161.9304,-135.5968 171.3295,-124.5028 179.6635,-114.666"/>
<polygon fill="#000000" stroke="#000000" points="182.5569,-116.6652 186.3507,-106.7729 177.216,-112.1403 182.5569,-116.6652"/>
</g>
<!-- Bugs faced -->
<g id="node10" class="node">
<title>Bugs faced</title>
<ellipse fill="none" stroke="#000000" stroke-dasharray="5,2" cx="75.5611" cy="-90" rx="36.4942" ry="18"/>
<text text-anchor="middle" x="75.5611" y="-87.5" font-family="Times,serif" font-size="10.00" fill="#000000">Bugs faced</text>
</g>
<!-- Monthly usage&#45;&gt;Bugs faced -->
<g id="edge6" class="edge">
<title>Monthly usage&#45;&gt;Bugs faced</title>
<path fill="none" stroke="#000000" d="M124.394,-144.937C116.3438,-135.8806 106.3069,-124.5891 97.4298,-114.6023"/>
<polygon fill="#000000" stroke="#000000" points="99.8789,-112.0893 90.6193,-106.9405 94.647,-116.7399 99.8789,-112.0893"/>
</g>
<!-- Did renew -->
<g id="node11" class="node">
<title>Did renew</title>
<ellipse fill="#d3d3d3" stroke="#000000" cx="329.5611" cy="-18" rx="34.9638" ry="18"/>
<text text-anchor="middle" x="329.5611" y="-15.5" font-family="Times,serif" font-size="10.00" fill="#000000">Did renew</text>
</g>
<!-- Monthly usage&#45;&gt;Did renew -->
<g id="edge7" class="edge">
<title>Monthly usage&#45;&gt;Did renew</title>
<path fill="none" stroke="#000000" d="M138.3526,-143.7322C138.0523,-123.651 140.7551,-91.6389 158.5611,-72 175.8273,-52.9564 241.9725,-36.0116 286.7518,-26.3821"/>
<polygon fill="#000000" stroke="#000000" points="287.7297,-29.7531 296.7939,-24.2675 286.2873,-22.9033 287.7297,-29.7531"/>
</g>
<!-- Sales calls -->
<g id="node3" class="node">
<title>Sales calls</title>
<ellipse fill="none" stroke="#000000" cx="459.5611" cy="-306" rx="34.9638" ry="18"/>
<text text-anchor="middle" x="459.5611" y="-303.5" font-family="Times,serif" font-size="10.00" fill="#000000">Sales calls</text>
</g>
<!-- Interactions -->
<g id="node8" class="node">
<title>Interactions</title>
<ellipse fill="none" stroke="#000000" cx="525.5611" cy="-234" rx="38.0276" ry="18"/>
<text text-anchor="middle" x="525.5611" y="-231.5" font-family="Times,serif" font-size="10.00" fill="#000000">Interactions</text>
</g>
<!-- Sales calls&#45;&gt;Interactions -->
<g id="edge12" class="edge">
<title>Sales calls&#45;&gt;Interactions</title>
<path fill="none" stroke="#000000" d="M474.5375,-289.6621C483.0235,-280.4046 493.8034,-268.6447 503.2662,-258.3217"/>
<polygon fill="#000000" stroke="#000000" points="506.0087,-260.5095 510.1859,-250.7729 500.8486,-255.7794 506.0087,-260.5095"/>
</g>
<!-- Product need -->
<g id="node9" class="node">
<title>Product need</title>
<ellipse fill="none" stroke="#000000" stroke-dasharray="5,2" cx="334.5611" cy="-234" rx="41.4139" ry="18"/>
<text text-anchor="middle" x="334.5611" y="-231.5" font-family="Times,serif" font-size="10.00" fill="#000000">Product need</text>
</g>
<!-- Sales calls&#45;&gt;Product need -->
<g id="edge11" class="edge">
<title>Sales calls&#45;&gt;Product need</title>
<path fill="none" stroke="#000000" d="M436.0495,-292.4574C416.99,-281.4791 389.8765,-265.8617 368.4683,-253.5306"/>
<polygon fill="#000000" stroke="#000000" points="370.0951,-250.4286 359.6828,-248.4701 366.6012,-256.4943 370.0951,-250.4286"/>
</g>
<!-- Sales calls&#45;&gt;Did renew -->
<g id="edge10" class="edge">
<title>Sales calls&#45;&gt;Did renew</title>
<path fill="none" stroke="#000000" d="M461.2685,-288.0197C464.3037,-246.1595 466.4418,-140.5489 419.5611,-72 407.2102,-53.9406 386.6465,-40.9427 368.291,-32.2311"/>
<polygon fill="#000000" stroke="#000000" points="369.507,-28.9411 358.9487,-28.0621 366.6544,-35.3335 369.507,-28.9411"/>
</g>
<!-- Economy -->
<g id="node4" class="node">
<title>Economy</title>
<ellipse fill="none" stroke="#000000" cx="360.5611" cy="-90" rx="32.9303" ry="18"/>
<text text-anchor="middle" x="360.5611" y="-87.5" font-family="Times,serif" font-size="10.00" fill="#000000">Economy</text>
</g>
<!-- Economy&#45;&gt;Did renew -->
<g id="edge9" class="edge">
<title>Economy&#45;&gt;Did renew</title>
<path fill="none" stroke="#000000" d="M352.8981,-72.2022C349.3694,-64.0064 345.1051,-54.1024 341.1923,-45.0145"/>
<polygon fill="#000000" stroke="#000000" points="344.3052,-43.3938 337.1358,-35.593 337.8758,-46.162 344.3052,-43.3938"/>
</g>
<!-- Discount -->
<g id="node5" class="node">
<title>Discount</title>
<ellipse fill="none" stroke="#000000" cx="334.5611" cy="-162" rx="31.577" ry="18"/>
<text text-anchor="middle" x="334.5611" y="-159.5" font-family="Times,serif" font-size="10.00" fill="#000000">Discount</text>
</g>
<!-- Discount&#45;&gt;Did renew -->
<g id="edge5" class="edge">
<title>Discount&#45;&gt;Did renew</title>
<path fill="none" stroke="#000000" d="M327.9083,-144.2896C324.3574,-133.8861 320.3574,-120.3861 318.5611,-108 315.5533,-87.2614 318.6484,-63.7539 322.3124,-45.9655"/>
<polygon fill="#000000" stroke="#000000" points="325.7828,-46.4847 324.5555,-35.9612 318.9524,-44.9532 325.7828,-46.4847"/>
</g>
<!-- Last upgrade -->
<g id="node6" class="node">
<title>Last upgrade</title>
<ellipse fill="none" stroke="#000000" cx="244.5611" cy="-162" rx="40.7358" ry="18"/>
<text text-anchor="middle" x="244.5611" y="-159.5" font-family="Times,serif" font-size="10.00" fill="#000000">Last upgrade</text>
</g>
<!-- Last upgrade&#45;&gt;Ad spend -->
<g id="edge17" class="edge">
<title>Last upgrade&#45;&gt;Ad spend</title>
<path fill="none" stroke="#000000" d="M233.9099,-144.5708C228.6674,-135.9922 222.241,-125.4762 216.4336,-115.9732"/>
<polygon fill="#000000" stroke="#000000" points="219.3152,-113.9764 211.1141,-107.2687 213.3422,-117.6266 219.3152,-113.9764"/>
</g>
<!-- Last upgrade&#45;&gt;Did renew -->
<g id="edge16" class="edge">
<title>Last upgrade&#45;&gt;Did renew</title>
<path fill="none" stroke="#000000" d="M254.9837,-144.3428C269.7844,-119.2687 296.9938,-73.1728 314.1354,-44.1328"/>
<polygon fill="#000000" stroke="#000000" points="317.2494,-45.7427 319.3186,-35.3519 311.2212,-42.1844 317.2494,-45.7427"/>
</g>
<!-- Interactions&#45;&gt;Did renew -->
<g id="edge13" class="edge">
<title>Interactions&#45;&gt;Did renew</title>
<path fill="none" stroke="#000000" d="M524.734,-215.8711C522.2719,-182.9188 512.4825,-112.843 473.5611,-72 447.2171,-44.3554 405.3633,-30.7451 373.5522,-24.1163"/>
<polygon fill="#000000" stroke="#000000" points="374.0908,-20.6558 363.6092,-22.2005 372.7663,-27.5293 374.0908,-20.6558"/>
</g>
<!-- Product need&#45;&gt;Bugs reported -->
<g id="edge3" class="edge">
<title>Product need&#45;&gt;Bugs reported</title>
<path fill="none" stroke="#000000" d="M295.0199,-228.889C233.678,-220.3961 119.0471,-202.1051 84.5611,-180 50.8853,-158.4143 43.2102,-145.9473 30.5611,-108 23.8107,-87.7489 27.8179,-63.7824 33.1019,-45.6749"/>
<polygon fill="#000000" stroke="#000000" points="36.4767,-46.6126 36.1984,-36.0214 29.8113,-44.4745 36.4767,-46.6126"/>
</g>
<!-- Product need&#45;&gt;Monthly usage -->
<g id="edge4" class="edge">
<title>Product need&#45;&gt;Monthly usage</title>
<path fill="none" stroke="#000000" d="M302.7969,-222.2717C270.2436,-210.252 219.3901,-191.4753 183.0981,-178.0752"/>
<polygon fill="#000000" stroke="#000000" points="183.8686,-174.6288 173.2753,-174.4483 181.444,-181.1955 183.8686,-174.6288"/>
</g>
<!-- Product need&#45;&gt;Discount -->
<g id="edge2" class="edge">
<title>Product need&#45;&gt;Discount</title>
<path fill="none" stroke="#000000" d="M334.5611,-215.8314C334.5611,-208.131 334.5611,-198.9743 334.5611,-190.4166"/>
<polygon fill="#000000" stroke="#000000" points="338.0612,-190.4132 334.5611,-180.4133 331.0612,-190.4133 338.0612,-190.4132"/>
</g>
<!-- Product need&#45;&gt;Did renew -->
<g id="edge1" class="edge">
<title>Product need&#45;&gt;Did renew</title>
<path fill="none" stroke="#000000" d="M351.4292,-217.097C379.0811,-187.2449 428.5128,-123.4776 402.5611,-72 397.9078,-62.7699 378.8655,-48.8258 361.3972,-37.4195"/>
<polygon fill="#000000" stroke="#000000" points="362.8009,-34.1627 352.4905,-31.7244 359.03,-40.0602 362.8009,-34.1627"/>
</g>
<!-- Bugs faced&#45;&gt;Bugs reported -->
<g id="edge15" class="edge">
<title>Bugs faced&#45;&gt;Bugs reported</title>
<path fill="none" stroke="#000000" d="M67.6509,-72.2022C64.0355,-64.0675 59.6722,-54.2501 55.658,-45.2181"/>
<polygon fill="#000000" stroke="#000000" points="58.7509,-43.5592 51.4911,-35.8425 52.3542,-46.4022 58.7509,-43.5592"/>
</g>
<!-- Bugs faced&#45;&gt;Did renew -->
<g id="edge14" class="edge">
<title>Bugs faced&#45;&gt;Did renew</title>
<path fill="none" stroke="#000000" d="M104.7643,-79.0064C111.5532,-76.5848 118.7789,-74.114 125.5611,-72 181.3,-54.6257 246.6954,-37.957 288.1257,-27.8482"/>
<polygon fill="#000000" stroke="#000000" points="288.9735,-31.2441 297.8662,-25.4847 287.3228,-24.4415 288.9735,-31.2441"/>
</g>
</g>
</svg>
